<svg width="138" height="36" viewBox="0 0 138 36" fill="none" xmlns="http://www.w3.org/2000/svg">
<g clip-path="url(#clip0_1_8)" filter="url(#filter0_d_1_8)">
<g clip-path="url(#clip1_1_8)">
<path d="M28.2748 17.4004H23.9835H21.1328H20.4287L16.1374 21.6911L11.8461 17.4004H11.142H8.2913H4V21.6911H10.0684L13.1029 24.7256L16.1374 27.7601L19.1719 24.7256L22.2058 21.6911H28.2748V17.4004Z" fill="#FF6336"/>
<path d="M28.2748 8.81641H4V13.1077H28.2748V8.81641Z" fill="#FFC500"/>
<path d="M28.2748 0.234375H4V4.52568H28.2748V0.234375Z" fill="#A4A14A"/>
<path d="M37.9258 0.234375H41.7863V21.292H37.9258V0.234375Z" fill="black"/>
<path d="M47.7951 20.6922C46.576 20.0193 45.6109 19.0983 44.8997 17.9281C44.1873 16.7585 43.832 15.4711 43.832 14.0676C43.832 12.664 44.1873 11.3772 44.8997 10.207C45.6109 9.03736 46.576 8.11582 47.7951 7.44293C49.013 6.77004 50.3347 6.43359 51.7582 6.43359C53.1812 6.43359 54.5022 6.77004 55.7213 7.44293C56.9392 8.11582 57.9044 9.03678 58.6167 10.207C59.3279 11.3766 59.6844 12.664 59.6844 14.0676C59.6844 15.4711 59.3285 16.7579 58.6167 17.9281C57.9044 19.0977 56.9392 20.0193 55.7213 20.6922C54.5022 21.3651 53.1812 21.7015 51.7582 21.7015C50.3347 21.7015 49.0136 21.3651 47.7951 20.6922ZM53.791 17.6217C54.405 17.2806 54.897 16.798 55.2676 16.174C55.6376 15.55 55.8238 14.8483 55.8238 14.0681C55.8238 13.2886 55.6382 12.5868 55.2676 11.9623C54.897 11.3383 54.405 10.8557 53.791 10.5145C53.1771 10.1734 52.4989 10.0025 51.7582 10.0025C51.017 10.0025 50.34 10.1734 49.7254 10.5145C49.1114 10.8557 48.6188 11.3383 48.2482 11.9623C47.877 12.5862 47.6926 13.2886 47.6926 14.0681C47.6926 14.8483 47.877 15.55 48.2482 16.174C48.6183 16.798 49.1108 17.2806 49.7254 17.6217C50.3394 17.9629 51.0164 18.1338 51.7582 18.1338C52.4989 18.1332 53.1765 17.9629 53.791 17.6217Z" fill="black"/>
<path d="M61.7305 0.234375H65.591V12.7813L70.6212 6.84426H75.2124L69.5388 13.5419L75.6219 21.292H70.6795L65.591 14.5943V21.292H61.7305V0.234375Z" fill="black"/>
<path d="M79.2644 20.766C78.182 20.142 77.3047 19.2499 76.6324 18.0898C75.9595 16.9302 75.623 15.5891 75.623 14.0683C75.623 12.6842 75.9448 11.4068 76.5882 10.2372C77.2316 9.0676 78.109 8.14134 79.2208 7.45903C80.3321 6.77671 81.55 6.43555 82.8764 6.43555C83.8121 6.43555 84.6652 6.59169 85.4348 6.90339C86.2049 7.21509 86.7947 7.63461 87.2042 8.16079V6.84447H91.0648V21.2922H87.2042V19.9759C86.5997 20.5415 85.9562 20.9699 85.2739 21.2627C84.591 21.555 83.7137 21.7017 82.6413 21.7017C81.4723 21.7023 80.3468 21.39 79.2644 20.766ZM86.298 16.9644C87.0192 16.1848 87.3804 15.2197 87.3804 14.0689C87.3804 12.9188 87.0192 11.9536 86.298 11.1735C85.5768 10.3939 84.6211 10.0039 83.432 10.0039C82.2424 10.0039 81.2866 10.3945 80.5654 11.1735C79.8442 11.9536 79.4836 12.9188 79.4836 14.0689C79.4836 15.2197 79.8442 16.1848 80.5654 16.9644C81.2866 17.7445 82.2418 18.134 83.432 18.134C84.6211 18.134 85.5768 17.7445 86.298 16.9644Z" fill="black"/>
<path d="M93.873 0.234375H97.7337V21.292H93.873V0.234375Z" fill="black"/>
<path d="M100.747 4.15283C100.279 3.68499 100.045 3.11934 100.045 2.45647C100.045 1.77415 100.279 1.19435 100.747 0.716494C101.214 0.239224 101.78 0 102.443 0C103.125 0 103.705 0.239224 104.183 0.716494C104.66 1.19435 104.9 1.77415 104.9 2.45647C104.9 3.11934 104.661 3.68499 104.183 4.15283C103.705 4.62068 103.125 4.8546 102.443 4.8546C101.78 4.85519 101.214 4.62068 100.747 4.15283ZM100.542 6.84381H104.402V21.2915H100.542V6.84381Z" fill="black"/>
<path d="M107.035 20.2948L107.913 16.6682H108.088C109.355 17.6434 110.652 18.1306 111.978 18.1306C112.524 18.1306 112.967 18.0281 113.309 17.8237C113.65 17.6192 113.821 17.3222 113.821 16.9316C113.821 16.5221 113.62 16.1909 113.221 15.9376C112.821 15.6842 112.075 15.3725 110.984 15.0013C109.873 14.6313 109.01 14.0945 108.396 13.3927C107.782 12.6909 107.474 11.8625 107.474 10.9068C107.474 9.56159 107.976 8.47919 108.98 7.66017C109.984 6.84115 111.256 6.43164 112.797 6.43164C113.577 6.43164 114.269 6.5047 114.874 6.65083C115.478 6.79696 116.053 7.03618 116.599 7.36732L116.746 11.0523H116.541C115.839 10.6039 115.215 10.2681 114.669 10.0436C114.123 9.81967 113.509 9.70712 112.827 9.70712C112.339 9.70712 111.939 9.80494 111.628 9.99938C111.316 10.1944 111.16 10.4484 111.16 10.7601C111.16 11.1696 111.355 11.506 111.745 11.7694C112.134 12.0328 112.866 12.3498 113.938 12.7198C115.166 13.1293 116.097 13.6266 116.731 14.2117C117.365 14.7962 117.682 15.703 117.682 16.9316C117.682 17.9456 117.428 18.8135 116.921 19.5348C116.414 20.2565 115.746 20.7975 114.917 21.1581C114.089 21.5187 113.177 21.699 112.183 21.699C110.174 21.699 108.458 21.2311 107.035 20.2948Z" fill="black"/>
<path d="M123.12 20.6763C121.911 19.9939 120.961 19.063 120.269 17.8834C119.576 16.7037 119.23 15.3927 119.23 13.9497C119.23 12.5462 119.557 11.2735 120.21 10.1333C120.864 8.99258 121.771 8.09107 122.931 7.4282C124.09 6.76533 125.402 6.43359 126.864 6.43359C128.345 6.43359 129.628 6.78006 130.71 7.4718C131.791 8.16414 132.61 9.08509 133.166 10.2358C133.722 11.3866 134 12.6245 134 13.9503V15.091H122.915C123.149 16.1834 123.651 17.0119 124.421 17.577C125.192 18.1426 126.21 18.4248 127.478 18.4248C129.408 18.4248 131.094 17.7914 132.537 16.524H132.947L132.8 20.1795C131.923 20.6869 130.997 21.0669 130.022 21.3203C129.047 21.5736 128.111 21.7003 127.214 21.7003C125.694 21.6997 124.329 21.3586 123.12 20.6763ZM130.14 12.4578C130.042 11.5804 129.676 10.8928 129.043 10.3961C128.409 9.8994 127.634 9.65016 126.718 9.65016C125.821 9.65016 125.036 9.88938 124.363 10.3666C123.691 10.8445 123.237 11.5416 123.003 12.4578H130.14Z" fill="black"/>
</g>
</g>
<defs>
<filter id="filter0_d_1_8" x="0" y="0" width="138" height="36" filterUnits="userSpaceOnUse" color-interpolation-filters="sRGB">
<feFlood flood-opacity="0" result="BackgroundImageFix"/>
<feColorMatrix in="SourceAlpha" type="matrix" values="0 0 0 0 0 0 0 0 0 0 0 0 0 0 0 0 0 0 127 0" result="hardAlpha"/>
<feOffset dy="4"/>
<feGaussianBlur stdDeviation="2"/>
<feComposite in2="hardAlpha" operator="out"/>
<feColorMatrix type="matrix" values="0 0 0 0 0 0 0 0 0 0 0 0 0 0 0 0 0 0 0.25 0"/>
<feBlend mode="normal" in2="BackgroundImageFix" result="effect1_dropShadow_1_8"/>
<feBlend mode="normal" in="SourceGraphic" in2="effect1_dropShadow_1_8" result="shape"/>
</filter>
<clipPath id="clip0_1_8">
<rect width="130" height="28" fill="white" transform="translate(4)"/>
</clipPath>
<clipPath id="clip1_1_8">
<rect width="130" height="28" fill="white" transform="translate(4)"/>
</clipPath>
</defs>
</svg>
